STARTFONT 2.1
FONT -ctrlz-fixed-medium-r-normal--16-100-96-96-c-80-ISO10646-1
SIZE 10 96 96
FONTBOUNDINGBOX 8 16 0 -4
COMMENT "Generated by fontforge, http://fontforge.sourceforge.net"
COMMENT "forked from Dina, http://www.donationcoder.com/Software/Jibz/Dina/"
STARTPROPERTIES 18
FACE_NAME "CtrlZ"
FAMILY_NAME "CtrlZ"
WEIGHT_NAME "Medium"
SLANT "R"
PIXEL_SIZE 16
POINT_SIZE 100
RESOLUTION_X 96
RESOLUTION_Y 96
CHARSET_REGISTRY "ISO10646"
CHARSET_ENCODING "1"
CAP_HEIGHT 9
WEIGHT 10
RESOLUTION 132
X_HEIGHT 0
QUAD_WIDTH 8
FONT_ASCENT 12
FONT_DESCENT 4
_GBDFED_INFO "Edited with gbdfed 1.6."
ENDPROPERTIES
CHARS 298
STARTCHAR $10
ENCODING 10
SWIDTH 600 0
DWIDTH 8 0
BBX 6 8 1 1
BITMAP
FC
84
84
84
84
84
84
FC
ENDCHAR
STARTCHAR $11
ENCODING 11
SWIDTH 600 0
DWIDTH 8 0
BBX 6 8 1 1
BITMAP
FC
84
84
84
84
84
84
FC
ENDCHAR
STARTCHAR $12
ENCODING 12
SWIDTH 600 0
DWIDTH 8 0
BBX 6 8 1 1
BITMAP
FC
84
84
84
84
84
84
FC
ENDCHAR
STARTCHAR $13
ENCODING 13
SWIDTH 600 0
DWIDTH 8 0
BBX 6 8 1 1
BITMAP
FC
84
84
84
84
84
84
FC
ENDCHAR
STARTCHAR $14
ENCODING 14
SWIDTH 600 0
DWIDTH 8 0
BBX 4 8 0 4
BITMAP
10
10
10
10
10
10
10
F0
ENDCHAR
STARTCHAR $15
ENCODING 15
SWIDTH 600 0
DWIDTH 8 0
BBX 5 8 3 4
BITMAP
80
80
80
80
80
80
80
F8
ENDCHAR
STARTCHAR $16
ENCODING 16
SWIDTH 600 0
DWIDTH 8 0
BBX 5 9 3 -4
BITMAP
F8
80
80
80
80
80
80
80
80
ENDCHAR
STARTCHAR $17
ENCODING 17
SWIDTH 600 0
DWIDTH 8 0
BBX 4 9 0 -4
BITMAP
F0
10
10
10
10
10
10
10
10
ENDCHAR
STARTCHAR $18
ENCODING 18
SWIDTH 600 0
DWIDTH 8 0
BBX 8 1 0 4
BITMAP
FF
ENDCHAR
STARTCHAR $19
ENCODING 19
SWIDTH 600 0
DWIDTH 8 0
BBX 1 16 3 -4
BITMAP
80
80
80
80
80
80
80
80
80
80
80
80
80
80
80
80
ENDCHAR
STARTCHAR $20
ENCODING 20
SWIDTH 600 0
DWIDTH 8 0
BBX 4 16 0 -4
BITMAP
10
10
10
10
10
10
10
F0
10
10
10
10
10
10
10
10
ENDCHAR
STARTCHAR $21
ENCODING 21
SWIDTH 600 0
DWIDTH 8 0
BBX 8 8 0 4
BITMAP
10
10
10
10
10
10
10
FF
ENDCHAR
STARTCHAR $22
ENCODING 22
SWIDTH 600 0
DWIDTH 8 0
BBX 5 16 3 -4
BITMAP
80
80
80
80
80
80
80
F8
80
80
80
80
80
80
80
80
ENDCHAR
STARTCHAR $23
ENCODING 23
SWIDTH 600 0
DWIDTH 8 0
BBX 8 9 0 -4
BITMAP
FF
10
10
10
10
10
10
10
10
ENDCHAR
STARTCHAR $24
ENCODING 24
SWIDTH 600 0
DWIDTH 8 0
BBX 8 16 0 -4
BITMAP
10
10
10
10
10
10
10
FF
10
10
10
10
10
10
10
10
ENDCHAR
STARTCHAR $25
ENCODING 25
SWIDTH 600 0
DWIDTH 8 0
BBX 8 16 0 -4
BITMAP
AA
55
AA
55
AA
55
AA
55
AA
55
AA
55
AA
55
AA
55
ENDCHAR
STARTCHAR $26
ENCODING 26
SWIDTH 600 0
DWIDTH 8 0
BBX 6 7 1 0
BITMAP
10
10
FC
30
FC
20
20
ENDCHAR
STARTCHAR $27
ENCODING 27
SWIDTH 600 0
DWIDTH 8 0
BBX 6 7 1 0
BITMAP
0C
30
C0
30
0C
00
FC
ENDCHAR
STARTCHAR $28
ENCODING 28
SWIDTH 600 0
DWIDTH 8 0
BBX 6 7 1 0
BITMAP
FC
48
48
48
48
48
48
ENDCHAR
STARTCHAR $29
ENCODING 29
SWIDTH 600 0
DWIDTH 8 0
BBX 6 7 1 0
BITMAP
C0
30
0C
30
C0
00
FC
ENDCHAR
STARTCHAR $30
ENCODING 30
SWIDTH 600 0
DWIDTH 8 0
BBX 6 9 1 0
BITMAP
30
48
40
40
F0
40
40
80
FC
ENDCHAR
STARTCHAR $31
ENCODING 31
SWIDTH 600 0
DWIDTH 8 0
BBX 4 1 2 3
BITMAP
F0
ENDCHAR
STARTCHAR $32
ENCODING 32
SWIDTH 600 0
DWIDTH 8 0
BBX 1 1 7 -4
BITMAP
00
ENDCHAR
STARTCHAR $33
ENCODING 33
SWIDTH 600 0
DWIDTH 8 0
BBX 1 10 3 0
BITMAP
80
80
80
80
80
80
00
00
80
80
ENDCHAR
STARTCHAR $34
ENCODING 34
SWIDTH 600 0
DWIDTH 8 0
BBX 4 3 2 8
BITMAP
90
90
90
ENDCHAR
STARTCHAR $35
ENCODING 35
SWIDTH 600 0
DWIDTH 8 0
BBX 6 8 1 0
BITMAP
48
48
FC
48
48
FC
48
48
ENDCHAR
STARTCHAR $36
ENCODING 36
SWIDTH 600 0
DWIDTH 8 0
BBX 5 11 1 -1
BITMAP
20
70
A8
A0
A0
70
28
28
A8
70
20
ENDCHAR
STARTCHAR $37
ENCODING 37
SWIDTH 600 0
DWIDTH 8 0
BBX 7 9 0 0
BITMAP
60
92
94
68
10
2C
52
92
0C
ENDCHAR
STARTCHAR $38
ENCODING 38
SWIDTH 600 0
DWIDTH 8 0
BBX 6 10 1 0
BITMAP
60
90
90
90
60
94
88
88
88
74
ENDCHAR
STARTCHAR $39
ENCODING 39
SWIDTH 600 0
DWIDTH 8 0
BBX 1 3 3 8
BITMAP
80
80
80
ENDCHAR
STARTCHAR $40
ENCODING 40
SWIDTH 600 0
DWIDTH 8 0
BBX 3 13 2 -2
BITMAP
20
40
40
80
80
80
80
80
80
80
40
40
20
ENDCHAR
STARTCHAR $41
ENCODING 41
SWIDTH 600 0
DWIDTH 8 0
BBX 3 13 2 -2
BITMAP
80
40
40
20
20
20
20
20
20
20
40
40
80
ENDCHAR
STARTCHAR $42
ENCODING 42
SWIDTH 600 0
DWIDTH 8 0
BBX 6 5 1 2
BITMAP
48
30
FC
30
48
ENDCHAR
STARTCHAR $43
ENCODING 43
SWIDTH 600 0
DWIDTH 8 0
BBX 5 5 1 2
BITMAP
20
20
F8
20
20
ENDCHAR
STARTCHAR $44
ENCODING 44
SWIDTH 600 0
DWIDTH 8 0
BBX 3 4 2 -2
BITMAP
60
60
40
C0
ENDCHAR
STARTCHAR $45
ENCODING 45
SWIDTH 600 0
DWIDTH 8 0
BBX 6 1 1 4
BITMAP
FC
ENDCHAR
STARTCHAR $46
ENCODING 46
SWIDTH 600 0
DWIDTH 8 0
BBX 2 2 3 0
BITMAP
C0
C0
ENDCHAR
STARTCHAR $47
ENCODING 47
SWIDTH 600 0
DWIDTH 8 0
BBX 6 12 1 -1
BITMAP
04
04
08
08
10
10
20
20
40
40
80
80
ENDCHAR
STARTCHAR $48
ENCODING 48
SWIDTH 600 0
DWIDTH 8 0
BBX 6 9 1 0
BITMAP
78
84
8C
94
A4
C4
84
84
78
ENDCHAR
STARTCHAR $49
ENCODING 49
SWIDTH 600 0
DWIDTH 8 0
BBX 5 9 2 0
BITMAP
20
60
A0
20
20
20
20
20
F8
ENDCHAR
STARTCHAR $50
ENCODING 50
SWIDTH 600 0
DWIDTH 8 0
BBX 6 9 1 0
BITMAP
78
84
04
08
10
20
40
80
FC
ENDCHAR
STARTCHAR $51
ENCODING 51
SWIDTH 600 0
DWIDTH 8 0
BBX 6 9 1 0
BITMAP
78
84
04
04
38
04
04
84
78
ENDCHAR
STARTCHAR $52
ENCODING 52
SWIDTH 600 0
DWIDTH 8 0
BBX 6 9 1 0
BITMAP
08
18
28
48
88
FC
08
08
08
ENDCHAR
STARTCHAR $53
ENCODING 53
SWIDTH 600 0
DWIDTH 8 0
BBX 6 9 1 0
BITMAP
FC
80
80
80
F8
04
04
84
78
ENDCHAR
STARTCHAR $54
ENCODING 54
SWIDTH 600 0
DWIDTH 8 0
BBX 6 9 1 0
BITMAP
38
40
80
80
F8
84
84
84
78
ENDCHAR
STARTCHAR $55
ENCODING 55
SWIDTH 600 0
DWIDTH 8 0
BBX 6 9 1 0
BITMAP
FC
04
04
08
08
10
10
20
20
ENDCHAR
STARTCHAR $56
ENCODING 56
SWIDTH 600 0
DWIDTH 8 0
BBX 6 9 1 0
BITMAP
78
84
84
84
78
84
84
84
78
ENDCHAR
STARTCHAR $57
ENCODING 57
SWIDTH 600 0
DWIDTH 8 0
BBX 6 9 1 0
BITMAP
78
84
84
84
7C
04
04
08
70
ENDCHAR
STARTCHAR $58
ENCODING 58
SWIDTH 600 0
DWIDTH 8 0
BBX 2 7 3 0
BITMAP
C0
C0
00
00
00
C0
C0
ENDCHAR
STARTCHAR $59
ENCODING 59
SWIDTH 600 0
DWIDTH 8 0
BBX 3 9 2 -2
BITMAP
60
60
00
00
00
60
60
40
C0
ENDCHAR
STARTCHAR $60
ENCODING 60
SWIDTH 600 0
DWIDTH 8 0
BBX 5 9 2 0
BITMAP
08
10
20
40
80
40
20
10
08
ENDCHAR
STARTCHAR $61
ENCODING 61
SWIDTH 600 0
DWIDTH 8 0
BBX 6 3 1 3
BITMAP
FC
00
FC
ENDCHAR
STARTCHAR $62
ENCODING 62
SWIDTH 600 0
DWIDTH 8 0
BBX 5 9 1 0
BITMAP
80
40
20
10
08
10
20
40
80
ENDCHAR
STARTCHAR $63
ENCODING 63
SWIDTH 600 0
DWIDTH 8 0
BBX 6 10 1 0
BITMAP
78
84
04
04
18
20
20
00
20
20
ENDCHAR
STARTCHAR $64
ENCODING 64
SWIDTH 600 0
DWIDTH 8 0
BBX 6 9 1 0
BITMAP
78
84
84
9C
A4
A4
9C
80
7C
ENDCHAR
STARTCHAR $65
ENCODING 65
SWIDTH 600 0
DWIDTH 8 0
BBX 6 10 1 0
BITMAP
78
84
84
84
84
FC
84
84
84
84
ENDCHAR
STARTCHAR $66
ENCODING 66
SWIDTH 600 0
DWIDTH 8 0
BBX 6 10 1 0
BITMAP
F8
84
84
84
F8
84
84
84
84
F8
ENDCHAR
STARTCHAR $67
ENCODING 67
SWIDTH 600 0
DWIDTH 8 0
BBX 6 10 1 0
BITMAP
78
84
84
80
80
80
80
84
84
78
ENDCHAR
STARTCHAR $68
ENCODING 68
SWIDTH 600 0
DWIDTH 8 0
BBX 6 10 1 0
BITMAP
F0
88
84
84
84
84
84
84
88
F0
ENDCHAR
STARTCHAR $69
ENCODING 69
SWIDTH 600 0
DWIDTH 8 0
BBX 6 10 1 0
BITMAP
FC
80
80
80
F0
80
80
80
80
FC
ENDCHAR
STARTCHAR $70
ENCODING 70
SWIDTH 600 0
DWIDTH 8 0
BBX 6 10 1 0
BITMAP
FC
80
80
80
F0
80
80
80
80
80
ENDCHAR
STARTCHAR $71
ENCODING 71
SWIDTH 600 0
DWIDTH 8 0
BBX 6 10 1 0
BITMAP
78
84
84
80
80
9C
84
84
84
78
ENDCHAR
STARTCHAR $72
ENCODING 72
SWIDTH 600 0
DWIDTH 8 0
BBX 6 10 1 0
BITMAP
84
84
84
84
FC
84
84
84
84
84
ENDCHAR
STARTCHAR $73
ENCODING 73
SWIDTH 600 0
DWIDTH 8 0
BBX 3 10 2 0
BITMAP
E0
40
40
40
40
40
40
40
40
E0
ENDCHAR
STARTCHAR $74
ENCODING 74
SWIDTH 600 0
DWIDTH 8 0
BBX 6 10 1 0
BITMAP
1C
08
08
08
08
08
08
88
88
70
ENDCHAR
STARTCHAR $75
ENCODING 75
SWIDTH 600 0
DWIDTH 8 0
BBX 6 10 1 0
BITMAP
84
88
90
A0
C0
C0
A0
90
88
84
ENDCHAR
STARTCHAR $76
ENCODING 76
SWIDTH 600 0
DWIDTH 8 0
BBX 6 10 1 0
BITMAP
80
80
80
80
80
80
80
80
80
FC
ENDCHAR
STARTCHAR $77
ENCODING 77
SWIDTH 600 0
DWIDTH 8 0
BBX 7 10 0 0
BITMAP
82
C6
AA
92
92
82
82
82
82
82
ENDCHAR
STARTCHAR $78
ENCODING 78
SWIDTH 600 0
DWIDTH 8 0
BBX 6 10 1 0
BITMAP
84
84
84
C4
A4
94
8C
84
84
84
ENDCHAR
STARTCHAR $79
ENCODING 79
SWIDTH 600 0
DWIDTH 8 0
BBX 6 10 1 0
BITMAP
78
84
84
84
84
84
84
84
84
78
ENDCHAR
STARTCHAR $80
ENCODING 80
SWIDTH 600 0
DWIDTH 8 0
BBX 6 10 1 0
BITMAP
F8
84
84
84
84
F8
80
80
80
80
ENDCHAR
STARTCHAR $81
ENCODING 81
SWIDTH 600 0
DWIDTH 8 0
BBX 6 11 1 -1
BITMAP
78
84
84
84
84
84
84
84
94
78
04
ENDCHAR
STARTCHAR $82
ENCODING 82
SWIDTH 600 0
DWIDTH 8 0
BBX 6 10 1 0
BITMAP
F8
84
84
84
84
F8
A0
90
88
84
ENDCHAR
STARTCHAR $83
ENCODING 83
SWIDTH 600 0
DWIDTH 8 0
BBX 6 10 1 0
BITMAP
78
84
80
80
78
04
04
84
84
78
ENDCHAR
STARTCHAR $84
ENCODING 84
SWIDTH 600 0
DWIDTH 8 0
BBX 7 10 0 0
BITMAP
FE
10
10
10
10
10
10
10
10
10
ENDCHAR
STARTCHAR $85
ENCODING 85
SWIDTH 600 0
DWIDTH 8 0
BBX 6 10 1 0
BITMAP
84
84
84
84
84
84
84
84
84
78
ENDCHAR
STARTCHAR $86
ENCODING 86
SWIDTH 600 0
DWIDTH 8 0
BBX 6 10 1 0
BITMAP
84
84
84
84
84
48
48
48
30
30
ENDCHAR
STARTCHAR $87
ENCODING 87
SWIDTH 600 0
DWIDTH 8 0
BBX 7 10 0 0
BITMAP
82
82
82
82
82
92
92
AA
C6
82
ENDCHAR
STARTCHAR $88
ENCODING 88
SWIDTH 600 0
DWIDTH 8 0
BBX 6 10 1 0
BITMAP
84
84
48
48
30
30
48
48
84
84
ENDCHAR
STARTCHAR $89
ENCODING 89
SWIDTH 600 0
DWIDTH 8 0
BBX 7 10 0 0
BITMAP
82
82
44
44
28
10
10
10
10
10
ENDCHAR
STARTCHAR $90
ENCODING 90
SWIDTH 600 0
DWIDTH 8 0
BBX 6 10 1 0
BITMAP
FC
04
04
08
10
20
40
80
80
FC
ENDCHAR
STARTCHAR $91
ENCODING 91
SWIDTH 600 0
DWIDTH 8 0
BBX 4 13 2 -2
BITMAP
F0
80
80
80
80
80
80
80
80
80
80
80
F0
ENDCHAR
STARTCHAR $92
ENCODING 92
SWIDTH 600 0
DWIDTH 8 0
BBX 6 12 1 -1
BITMAP
80
80
40
40
20
20
10
10
08
08
04
04
ENDCHAR
STARTCHAR $93
ENCODING 93
SWIDTH 600 0
DWIDTH 8 0
BBX 4 13 2 -2
BITMAP
F0
10
10
10
10
10
10
10
10
10
10
10
F0
ENDCHAR
STARTCHAR $94
ENCODING 94
SWIDTH 600 0
DWIDTH 8 0
BBX 5 6 1 4
BITMAP
20
20
50
50
88
88
ENDCHAR
STARTCHAR $95
ENCODING 95
SWIDTH 600 0
DWIDTH 8 0
BBX 8 1 0 -1
BITMAP
FF
ENDCHAR
STARTCHAR $96
ENCODING 96
SWIDTH 600 0
DWIDTH 8 0
BBX 3 3 3 8
BITMAP
C0
40
20
ENDCHAR
STARTCHAR $97
ENCODING 97
SWIDTH 600 0
DWIDTH 8 0
BBX 6 7 1 0
BITMAP
78
04
04
7C
84
84
7C
ENDCHAR
STARTCHAR $98
ENCODING 98
SWIDTH 600 0
DWIDTH 8 0
BBX 6 10 1 0
BITMAP
80
80
80
F8
84
84
84
84
84
F8
ENDCHAR
STARTCHAR $99
ENCODING 99
SWIDTH 600 0
DWIDTH 8 0
BBX 6 7 1 0
BITMAP
78
84
80
80
80
84
78
ENDCHAR
STARTCHAR $100
ENCODING 100
SWIDTH 600 0
DWIDTH 8 0
BBX 6 10 1 0
BITMAP
04
04
04
7C
84
84
84
84
84
7C
ENDCHAR
STARTCHAR $101
ENCODING 101
SWIDTH 600 0
DWIDTH 8 0
BBX 6 7 1 0
BITMAP
78
84
84
FC
80
84
78
ENDCHAR
STARTCHAR $102
ENCODING 102
SWIDTH 600 0
DWIDTH 8 0
BBX 5 10 2 0
BITMAP
38
40
40
F0
40
40
40
40
40
40
ENDCHAR
STARTCHAR $103
ENCODING 103
SWIDTH 600 0
DWIDTH 8 0
BBX 6 11 1 -4
BITMAP
7C
84
84
84
84
84
7C
04
04
04
78
ENDCHAR
STARTCHAR $104
ENCODING 104
SWIDTH 600 0
DWIDTH 8 0
BBX 6 10 1 0
BITMAP
80
80
80
F8
84
84
84
84
84
84
ENDCHAR
STARTCHAR $105
ENCODING 105
SWIDTH 600 0
DWIDTH 8 0
BBX 5 10 2 0
BITMAP
20
20
00
E0
20
20
20
20
20
F8
ENDCHAR
STARTCHAR $106
ENCODING 106
SWIDTH 600 0
DWIDTH 8 0
BBX 4 13 2 -3
BITMAP
10
10
00
70
10
10
10
10
10
10
10
10
E0
ENDCHAR
STARTCHAR $107
ENCODING 107
SWIDTH 600 0
DWIDTH 8 0
BBX 6 10 1 0
BITMAP
80
80
80
88
90
A0
E0
90
88
84
ENDCHAR
STARTCHAR $108
ENCODING 108
SWIDTH 600 0
DWIDTH 8 0
BBX 6 10 1 0
BITMAP
E0
20
20
20
20
20
20
20
20
1C
ENDCHAR
STARTCHAR $109
ENCODING 109
SWIDTH 600 0
DWIDTH 8 0
BBX 7 7 1 0
BITMAP
EC
92
92
92
92
92
92
ENDCHAR
STARTCHAR $110
ENCODING 110
SWIDTH 600 0
DWIDTH 8 0
BBX 6 7 1 0
BITMAP
F8
84
84
84
84
84
84
ENDCHAR
STARTCHAR $111
ENCODING 111
SWIDTH 600 0
DWIDTH 8 0
BBX 6 7 1 0
BITMAP
78
84
84
84
84
84
78
ENDCHAR
STARTCHAR $112
ENCODING 112
SWIDTH 600 0
DWIDTH 8 0
BBX 6 11 1 -4
BITMAP
F8
84
84
84
84
84
F8
80
80
80
80
ENDCHAR
STARTCHAR $113
ENCODING 113
SWIDTH 600 0
DWIDTH 8 0
BBX 6 11 1 -4
BITMAP
7C
84
84
84
84
84
7C
04
04
04
04
ENDCHAR
STARTCHAR $114
ENCODING 114
SWIDTH 600 0
DWIDTH 8 0
BBX 6 7 1 0
BITMAP
B8
C4
80
80
80
80
80
ENDCHAR
STARTCHAR $115
ENCODING 115
SWIDTH 600 0
DWIDTH 8 0
BBX 6 7 1 0
BITMAP
78
84
80
78
04
84
78
ENDCHAR
STARTCHAR $116
ENCODING 116
SWIDTH 600 0
DWIDTH 8 0
BBX 6 9 1 0
BITMAP
20
20
FC
20
20
20
20
20
1C
ENDCHAR
STARTCHAR $117
ENCODING 117
SWIDTH 600 0
DWIDTH 8 0
BBX 6 7 1 0
BITMAP
84
84
84
84
84
84
7C
ENDCHAR
STARTCHAR $118
ENCODING 118
SWIDTH 600 0
DWIDTH 8 0
BBX 5 7 1 0
BITMAP
88
88
88
50
50
20
20
ENDCHAR
STARTCHAR $119
ENCODING 119
SWIDTH 600 0
DWIDTH 8 0
BBX 7 7 1 0
BITMAP
82
92
92
92
92
92
6C
ENDCHAR
STARTCHAR $120
ENCODING 120
SWIDTH 600 0
DWIDTH 8 0
BBX 6 7 1 0
BITMAP
84
48
48
30
48
48
84
ENDCHAR
STARTCHAR $121
ENCODING 121
SWIDTH 600 0
DWIDTH 8 0
BBX 6 11 1 -4
BITMAP
84
84
84
84
84
84
7C
04
04
04
78
ENDCHAR
STARTCHAR $122
ENCODING 122
SWIDTH 600 0
DWIDTH 8 0
BBX 6 7 1 0
BITMAP
FC
08
10
20
40
80
FC
ENDCHAR
STARTCHAR $123
ENCODING 123
SWIDTH 600 0
DWIDTH 8 0
BBX 6 13 0 -2
BITMAP
0C
10
10
10
10
10
E0
10
10
10
10
10
0C
ENDCHAR
STARTCHAR $124
ENCODING 124
SWIDTH 600 0
DWIDTH 8 0
BBX 1 13 3 -2
BITMAP
80
80
80
80
80
80
80
80
80
80
80
80
80
ENDCHAR
STARTCHAR $125
ENCODING 125
SWIDTH 600 0
DWIDTH 8 0
BBX 6 13 1 -2
BITMAP
C0
20
20
20
20
20
1C
20
20
20
20
20
C0
ENDCHAR
STARTCHAR $126
ENCODING 126
SWIDTH 600 0
DWIDTH 8 0
BBX 6 2 1 3
BITMAP
64
98
ENDCHAR
STARTCHAR $127
ENCODING 127
SWIDTH 600 0
DWIDTH 8 0
BBX 1 1 7 -4
BITMAP
00
ENDCHAR
STARTCHAR $128
ENCODING 128
SWIDTH 600 0
DWIDTH 8 0
BBX 6 7 1 0
BITMAP
38
44
F0
40
F0
44
38
ENDCHAR
STARTCHAR $129
ENCODING 129
SWIDTH 600 0
DWIDTH 8 0
BBX 1 1 7 -4
BITMAP
00
ENDCHAR
STARTCHAR $130
ENCODING 130
SWIDTH 600 0
DWIDTH 8 0
BBX 2 4 2 -2
BITMAP
40
40
40
80
ENDCHAR
STARTCHAR $131
ENCODING 131
SWIDTH 600 0
DWIDTH 8 0
BBX 5 13 1 -2
BITMAP
18
20
20
20
78
20
20
20
20
20
20
20
C0
ENDCHAR
STARTCHAR $132
ENCODING 132
SWIDTH 600 0
DWIDTH 8 0
BBX 4 3 2 -1
BITMAP
90
90
90
ENDCHAR
STARTCHAR $133
ENCODING 133
SWIDTH 600 0
DWIDTH 8 0
BBX 5 1 1 0
BITMAP
A8
ENDCHAR
STARTCHAR $134
ENCODING 134
SWIDTH 600 0
DWIDTH 8 0
BBX 5 11 1 0
BITMAP
20
20
20
F8
20
20
20
20
20
20
20
ENDCHAR
STARTCHAR $135
ENCODING 135
SWIDTH 600 0
DWIDTH 8 0
BBX 5 11 1 0
BITMAP
20
20
20
F8
20
20
F8
20
20
20
20
ENDCHAR
STARTCHAR $136
ENCODING 136
SWIDTH 600 0
DWIDTH 8 0
BBX 5 3 1 8
BITMAP
20
50
88
ENDCHAR
STARTCHAR $137
ENCODING 137
SWIDTH 600 0
DWIDTH 8 0
BBX 5 8 1 0
BITMAP
90
90
20
20
40
40
A8
A8
ENDCHAR
STARTCHAR $138
ENCODING 138
SWIDTH 600 0
DWIDTH 8 0
BBX 6 11 1 0
BITMAP
48
30
78
84
80
80
78
04
04
84
78
ENDCHAR
STARTCHAR $139
ENCODING 139
SWIDTH 600 0
DWIDTH 8 0
BBX 3 5 1 1
BITMAP
20
40
80
40
20
ENDCHAR
STARTCHAR $140
ENCODING 140
SWIDTH 600 0
DWIDTH 8 0
BBX 6 9 1 0
BITMAP
6C
90
90
90
98
90
90
90
6C
ENDCHAR
STARTCHAR $141
ENCODING 141
SWIDTH 600 0
DWIDTH 8 0
BBX 1 1 7 -4
BITMAP
00
ENDCHAR
STARTCHAR $142
ENCODING 142
SWIDTH 600 0
DWIDTH 8 0
BBX 6 11 1 0
BITMAP
48
30
FC
08
10
20
20
40
40
80
FC
ENDCHAR
STARTCHAR $143
ENCODING 143
SWIDTH 600 0
DWIDTH 8 0
BBX 1 1 7 -4
BITMAP
00
ENDCHAR
STARTCHAR $144
ENCODING 144
SWIDTH 600 0
DWIDTH 8 0
BBX 1 1 7 -4
BITMAP
00
ENDCHAR
STARTCHAR $145
ENCODING 145
SWIDTH 600 0
DWIDTH 8 0
BBX 3 3 2 8
BITMAP
C0
40
20
ENDCHAR
STARTCHAR $146
ENCODING 146
SWIDTH 600 0
DWIDTH 8 0
BBX 3 3 2 8
BITMAP
60
40
80
ENDCHAR
STARTCHAR $147
ENCODING 147
SWIDTH 600 0
DWIDTH 8 0
BBX 6 3 1 8
BITMAP
D8
48
24
ENDCHAR
STARTCHAR $148
ENCODING 148
SWIDTH 600 0
DWIDTH 8 0
BBX 6 3 1 8
BITMAP
6C
48
90
ENDCHAR
STARTCHAR $149
ENCODING 149
SWIDTH 600 0
DWIDTH 8 0
BBX 5 5 1 1
BITMAP
20
70
F8
70
20
ENDCHAR
STARTCHAR $150
ENCODING 150
SWIDTH 600 0
DWIDTH 8 0
BBX 6 1 1 3
BITMAP
FC
ENDCHAR
STARTCHAR $151
ENCODING 151
SWIDTH 600 0
DWIDTH 8 0
BBX 8 1 0 3
BITMAP
FF
ENDCHAR
STARTCHAR $152
ENCODING 152
SWIDTH 600 0
DWIDTH 8 0
BBX 5 2 1 7
BITMAP
68
B0
ENDCHAR
STARTCHAR $153
ENCODING 153
SWIDTH 600 0
DWIDTH 8 0
BBX 6 4 1 5
BITMAP
F4
5C
54
54
ENDCHAR
STARTCHAR $154
ENCODING 154
SWIDTH 600 0
DWIDTH 8 0
BBX 6 10 1 0
BITMAP
48
30
00
78
84
80
78
04
84
78
ENDCHAR
STARTCHAR $155
ENCODING 155
SWIDTH 600 0
DWIDTH 8 0
BBX 3 5 1 1
BITMAP
80
40
20
40
80
ENDCHAR
STARTCHAR $156
ENCODING 156
SWIDTH 600 0
DWIDTH 8 0
BBX 7 7 0 0
BITMAP
6C
92
92
9E
90
92
6C
ENDCHAR
STARTCHAR $157
ENCODING 157
SWIDTH 600 0
DWIDTH 8 0
BBX 1 1 7 -4
BITMAP
00
ENDCHAR
STARTCHAR $158
ENCODING 158
SWIDTH 600 0
DWIDTH 8 0
BBX 6 10 1 0
BITMAP
48
30
00
FC
08
10
20
40
80
FC
ENDCHAR
STARTCHAR $159
ENCODING 159
SWIDTH 600 0
DWIDTH 8 0
BBX 7 11 0 0
BITMAP
28
28
82
82
82
44
28
10
10
10
10
ENDCHAR
STARTCHAR $160
ENCODING 160
SWIDTH 600 0
DWIDTH 8 0
BBX 1 1 7 -4
BITMAP
00
ENDCHAR
STARTCHAR $161
ENCODING 161
SWIDTH 600 0
DWIDTH 8 0
BBX 1 10 3 0
BITMAP
80
80
00
00
80
80
80
80
80
80
ENDCHAR
STARTCHAR $162
ENCODING 162
SWIDTH 600 0
DWIDTH 8 0
BBX 5 9 1 -1
BITMAP
20
70
A8
A0
A0
A0
A8
70
20
ENDCHAR
STARTCHAR $163
ENCODING 163
SWIDTH 600 0
DWIDTH 8 0
BBX 6 9 1 0
BITMAP
30
48
40
40
F0
40
40
80
FC
ENDCHAR
STARTCHAR $164
ENCODING 164
SWIDTH 600 0
DWIDTH 8 0
BBX 6 6 1 1
BITMAP
84
78
48
48
78
84
ENDCHAR
STARTCHAR $165
ENCODING 165
SWIDTH 600 0
DWIDTH 8 0
BBX 7 9 0 0
BITMAP
82
82
82
44
28
10
7C
10
10
ENDCHAR
STARTCHAR $166
ENCODING 166
SWIDTH 600 0
DWIDTH 8 0
BBX 1 14 3 -3
BITMAP
80
80
80
80
80
80
00
00
80
80
80
80
80
80
ENDCHAR
STARTCHAR $167
ENCODING 167
SWIDTH 600 0
DWIDTH 8 0
BBX 6 9 1 0
BITMAP
78
84
80
70
48
38
04
84
78
ENDCHAR
STARTCHAR $168
ENCODING 168
SWIDTH 600 0
DWIDTH 8 0
BBX 6 2 1 9
BITMAP
CC
CC
ENDCHAR
STARTCHAR $169
ENCODING 169
SWIDTH 600 0
DWIDTH 8 0
BBX 6 9 1 0
BITMAP
78
84
94
A4
A4
A4
94
84
78
ENDCHAR
STARTCHAR $170
ENCODING 170
SWIDTH 600 0
DWIDTH 8 0
BBX 4 5 1 4
BITMAP
60
10
70
90
70
ENDCHAR
STARTCHAR $171
ENCODING 171
SWIDTH 600 0
DWIDTH 8 0
BBX 6 5 1 1
BITMAP
24
48
90
48
24
ENDCHAR
STARTCHAR $172
ENCODING 172
SWIDTH 600 0
DWIDTH 8 0
BBX 4 4 2 1
BITMAP
F0
10
10
10
ENDCHAR
STARTCHAR $173
ENCODING 173
SWIDTH 600 0
DWIDTH 8 0
BBX 1 1 7 -4
BITMAP
00
ENDCHAR
STARTCHAR $174
ENCODING 174
SWIDTH 600 0
DWIDTH 8 0
BBX 6 9 1 0
BITMAP
78
84
B4
AC
B4
AC
AC
84
78
ENDCHAR
STARTCHAR $175
ENCODING 175
SWIDTH 600 0
DWIDTH 8 0
BBX 8 1 0 11
BITMAP
FF
ENDCHAR
STARTCHAR $176
ENCODING 176
SWIDTH 600 0
DWIDTH 8 0
BBX 4 4 1 7
BITMAP
60
90
90
60
ENDCHAR
STARTCHAR $177
ENCODING 177
SWIDTH 600 0
DWIDTH 8 0
BBX 5 7 1 1
BITMAP
20
20
F8
20
20
00
F8
ENDCHAR
STARTCHAR $178
ENCODING 178
SWIDTH 600 0
DWIDTH 8 0
BBX 4 6 1 5
BITMAP
E0
10
20
40
80
F0
ENDCHAR
STARTCHAR $179
ENCODING 179
SWIDTH 600 0
DWIDTH 8 0
BBX 4 6 1 5
BITMAP
E0
10
60
10
10
E0
ENDCHAR
STARTCHAR $180
ENCODING 180
SWIDTH 600 0
DWIDTH 8 0
BBX 3 3 2 8
BITMAP
60
40
80
ENDCHAR
STARTCHAR $181
ENCODING 181
SWIDTH 600 0
DWIDTH 8 0
BBX 5 10 1 -3
BITMAP
48
48
48
48
48
68
50
40
40
80
ENDCHAR
STARTCHAR $182
ENCODING 182
SWIDTH 600 0
DWIDTH 8 0
BBX 6 11 1 -2
BITMAP
7C
E8
E8
E8
68
28
28
28
28
28
28
ENDCHAR
STARTCHAR $183
ENCODING 183
SWIDTH 600 0
DWIDTH 8 0
BBX 3 3 2 3
BITMAP
40
E0
40
ENDCHAR
STARTCHAR $184
ENCODING 184
SWIDTH 600 0
DWIDTH 8 0
BBX 2 4 3 -3
BITMAP
C0
C0
40
80
ENDCHAR
STARTCHAR $185
ENCODING 185
SWIDTH 600 0
DWIDTH 8 0
BBX 3 6 1 5
BITMAP
40
C0
40
40
40
E0
ENDCHAR
STARTCHAR $186
ENCODING 186
SWIDTH 600 0
DWIDTH 8 0
BBX 4 6 1 5
BITMAP
60
90
90
90
90
60
ENDCHAR
STARTCHAR $187
ENCODING 187
SWIDTH 600 0
DWIDTH 8 0
BBX 6 5 1 1
BITMAP
90
48
24
48
90
ENDCHAR
STARTCHAR $188
ENCODING 188
SWIDTH 600 0
DWIDTH 8 0
BBX 6 12 1 -1
BITMAP
04
44
C8
48
50
10
20
24
4C
5C
84
84
ENDCHAR
STARTCHAR $189
ENCODING 189
SWIDTH 600 0
DWIDTH 8 0
BBX 6 12 1 -1
BITMAP
04
44
C8
48
50
10
20
28
54
44
88
9C
ENDCHAR
STARTCHAR $190
ENCODING 190
SWIDTH 600 0
DWIDTH 8 0
BBX 6 12 1 -1
BITMAP
04
C4
48
88
50
D0
20
24
4C
5C
84
84
ENDCHAR
STARTCHAR $191
ENCODING 191
SWIDTH 600 0
DWIDTH 8 0
BBX 6 10 1 0
BITMAP
10
10
00
10
10
60
80
80
84
78
ENDCHAR
STARTCHAR $192
ENCODING 192
SWIDTH 600 0
DWIDTH 8 0
BBX 6 11 1 0
BITMAP
20
10
00
30
48
48
48
78
84
84
84
ENDCHAR
STARTCHAR $193
ENCODING 193
SWIDTH 600 0
DWIDTH 8 0
BBX 6 11 1 0
BITMAP
10
20
00
30
48
48
48
78
84
84
84
ENDCHAR
STARTCHAR $194
ENCODING 194
SWIDTH 600 0
DWIDTH 8 0
BBX 6 11 1 0
BITMAP
30
48
00
30
48
48
48
78
84
84
84
ENDCHAR
STARTCHAR $195
ENCODING 195
SWIDTH 600 0
DWIDTH 8 0
BBX 6 11 1 0
BITMAP
34
58
00
30
48
48
48
78
84
84
84
ENDCHAR
STARTCHAR $196
ENCODING 196
SWIDTH 600 0
DWIDTH 8 0
BBX 6 11 1 0
BITMAP
48
48
00
30
48
48
48
78
84
84
84
ENDCHAR
STARTCHAR $197
ENCODING 197
SWIDTH 600 0
DWIDTH 8 0
BBX 6 11 1 0
BITMAP
30
48
30
30
48
48
78
84
84
84
84
ENDCHAR
STARTCHAR $198
ENCODING 198
SWIDTH 600 0
DWIDTH 8 0
BBX 6 9 1 0
BITMAP
1C
30
50
50
9C
F0
90
90
9C
ENDCHAR
STARTCHAR $199
ENCODING 199
SWIDTH 600 0
DWIDTH 8 0
BBX 6 12 1 -3
BITMAP
78
84
80
80
80
80
80
84
78
20
20
40
ENDCHAR
STARTCHAR $200
ENCODING 200
SWIDTH 600 0
DWIDTH 8 0
BBX 6 11 1 0
BITMAP
20
10
00
FC
80
80
F8
80
80
80
FC
ENDCHAR
STARTCHAR $201
ENCODING 201
SWIDTH 600 0
DWIDTH 8 0
BBX 6 11 1 0
BITMAP
10
20
00
FC
80
80
F8
80
80
80
FC
ENDCHAR
STARTCHAR $202
ENCODING 202
SWIDTH 600 0
DWIDTH 8 0
BBX 6 11 1 0
BITMAP
30
48
00
FC
80
80
F8
80
80
80
FC
ENDCHAR
STARTCHAR $203
ENCODING 203
SWIDTH 600 0
DWIDTH 8 0
BBX 6 11 1 0
BITMAP
48
48
00
FC
80
80
F8
80
80
80
FC
ENDCHAR
STARTCHAR $204
ENCODING 204
SWIDTH 600 0
DWIDTH 8 0
BBX 5 11 1 0
BITMAP
20
10
00
F8
20
20
20
20
20
20
F8
ENDCHAR
STARTCHAR $205
ENCODING 205
SWIDTH 600 0
DWIDTH 8 0
BBX 5 11 1 0
BITMAP
10
20
00
F8
20
20
20
20
20
20
F8
ENDCHAR
STARTCHAR $206
ENCODING 206
SWIDTH 600 0
DWIDTH 8 0
BBX 5 11 1 0
BITMAP
20
50
00
F8
20
20
20
20
20
20
F8
ENDCHAR
STARTCHAR $207
ENCODING 207
SWIDTH 600 0
DWIDTH 8 0
BBX 5 11 1 0
BITMAP
48
48
00
F8
20
20
20
20
20
20
F8
ENDCHAR
STARTCHAR $208
ENCODING 208
SWIDTH 600 0
DWIDTH 8 0
BBX 6 8 1 0
BITMAP
78
44
44
E4
44
44
44
78
ENDCHAR
STARTCHAR $209
ENCODING 209
SWIDTH 600 0
DWIDTH 8 0
BBX 6 11 1 0
BITMAP
34
58
00
84
C4
A4
94
8C
84
84
84
ENDCHAR
STARTCHAR $210
ENCODING 210
SWIDTH 600 0
DWIDTH 8 0
BBX 6 11 1 0
BITMAP
20
10
00
78
84
84
84
84
84
84
78
ENDCHAR
STARTCHAR $211
ENCODING 211
SWIDTH 600 0
DWIDTH 8 0
BBX 6 11 1 0
BITMAP
10
20
00
78
84
84
84
84
84
84
78
ENDCHAR
STARTCHAR $212
ENCODING 212
SWIDTH 600 0
DWIDTH 8 0
BBX 6 11 1 0
BITMAP
30
48
00
78
84
84
84
84
84
84
78
ENDCHAR
STARTCHAR $213
ENCODING 213
SWIDTH 600 0
DWIDTH 8 0
BBX 6 11 1 0
BITMAP
34
58
00
78
84
84
84
84
84
84
78
ENDCHAR
STARTCHAR $214
ENCODING 214
SWIDTH 600 0
DWIDTH 8 0
BBX 6 11 1 0
BITMAP
48
48
00
78
84
84
84
84
84
84
78
ENDCHAR
STARTCHAR $215
ENCODING 215
SWIDTH 600 0
DWIDTH 8 0
BBX 6 5 1 1
BITMAP
84
48
30
48
84
ENDCHAR
STARTCHAR $216
ENCODING 216
SWIDTH 600 0
DWIDTH 8 0
BBX 6 9 1 0
BITMAP
74
88
94
94
A4
A4
A4
44
B8
ENDCHAR
STARTCHAR $217
ENCODING 217
SWIDTH 600 0
DWIDTH 8 0
BBX 6 11 1 0
BITMAP
20
10
00
84
84
84
84
84
84
84
78
ENDCHAR
STARTCHAR $218
ENCODING 218
SWIDTH 600 0
DWIDTH 8 0
BBX 6 11 1 0
BITMAP
10
20
00
84
84
84
84
84
84
84
78
ENDCHAR
STARTCHAR $219
ENCODING 219
SWIDTH 600 0
DWIDTH 8 0
BBX 6 11 1 0
BITMAP
30
48
00
84
84
84
84
84
84
84
78
ENDCHAR
STARTCHAR $220
ENCODING 220
SWIDTH 600 0
DWIDTH 8 0
BBX 6 11 1 0
BITMAP
48
48
00
84
84
84
84
84
84
84
78
ENDCHAR
STARTCHAR $221
ENCODING 221
SWIDTH 600 0
DWIDTH 8 0
BBX 7 11 0 0
BITMAP
08
10
82
82
82
44
28
10
10
10
10
ENDCHAR
STARTCHAR $222
ENCODING 222
SWIDTH 600 0
DWIDTH 8 0
BBX 5 8 1 0
BITMAP
80
80
F0
88
88
F0
80
80
ENDCHAR
STARTCHAR $223
ENCODING 223
SWIDTH 600 0
DWIDTH 8 0
BBX 6 10 1 -1
BITMAP
38
44
44
78
44
44
44
44
78
80
ENDCHAR
STARTCHAR $224
ENCODING 224
SWIDTH 600 0
DWIDTH 8 0
BBX 6 11 1 0
BITMAP
30
10
08
00
78
04
04
7C
84
84
7C
ENDCHAR
STARTCHAR $225
ENCODING 225
SWIDTH 600 0
DWIDTH 8 0
BBX 6 11 1 0
BITMAP
18
10
20
00
78
04
04
7C
84
84
7C
ENDCHAR
STARTCHAR $226
ENCODING 226
SWIDTH 600 0
DWIDTH 8 0
BBX 6 11 1 0
BITMAP
10
28
44
00
78
04
04
7C
84
84
7C
ENDCHAR
STARTCHAR $227
ENCODING 227
SWIDTH 600 0
DWIDTH 8 0
BBX 6 11 1 0
BITMAP
34
58
00
00
78
04
04
7C
84
84
7C
ENDCHAR
STARTCHAR $228
ENCODING 228
SWIDTH 600 0
DWIDTH 8 0
BBX 6 11 1 0
BITMAP
48
48
00
00
78
04
04
7C
84
84
7C
ENDCHAR
STARTCHAR $229
ENCODING 229
SWIDTH 600 0
DWIDTH 8 0
BBX 6 11 1 0
BITMAP
10
28
10
00
78
04
04
7C
84
84
7C
ENDCHAR
STARTCHAR $230
ENCODING 230
SWIDTH 600 0
DWIDTH 8 0
BBX 6 7 1 0
BITMAP
58
A4
24
7C
A0
A4
58
ENDCHAR
STARTCHAR $231
ENCODING 231
SWIDTH 600 0
DWIDTH 8 0
BBX 6 11 1 -4
BITMAP
78
84
80
80
80
84
78
10
10
10
20
ENDCHAR
STARTCHAR $232
ENCODING 232
SWIDTH 600 0
DWIDTH 8 0
BBX 6 11 1 0
BITMAP
30
10
08
00
78
84
84
FC
80
84
78
ENDCHAR
STARTCHAR $233
ENCODING 233
SWIDTH 600 0
DWIDTH 8 0
BBX 6 11 1 0
BITMAP
18
10
20
00
78
84
84
FC
80
84
78
ENDCHAR
STARTCHAR $234
ENCODING 234
SWIDTH 600 0
DWIDTH 8 0
BBX 6 11 1 0
BITMAP
10
28
44
00
78
84
84
FC
80
84
78
ENDCHAR
STARTCHAR $235
ENCODING 235
SWIDTH 600 0
DWIDTH 8 0
BBX 6 11 1 0
BITMAP
48
48
00
00
78
84
84
FC
80
84
78
ENDCHAR
STARTCHAR $236
ENCODING 236
SWIDTH 600 0
DWIDTH 8 0
BBX 3 11 3 0
BITMAP
C0
40
20
00
C0
40
40
40
40
40
E0
ENDCHAR
STARTCHAR $237
ENCODING 237
SWIDTH 600 0
DWIDTH 8 0
BBX 3 11 3 0
BITMAP
60
40
80
00
C0
40
40
40
40
40
E0
ENDCHAR
STARTCHAR $238
ENCODING 238
SWIDTH 600 0
DWIDTH 8 0
BBX 5 11 2 0
BITMAP
20
50
88
00
60
20
20
20
20
20
70
ENDCHAR
STARTCHAR $239
ENCODING 239
SWIDTH 600 0
DWIDTH 8 0
BBX 4 11 2 0
BITMAP
90
90
00
00
60
20
20
20
20
20
70
ENDCHAR
STARTCHAR $240
ENCODING 240
SWIDTH 600 0
DWIDTH 8 0
BBX 6 11 1 0
BITMAP
68
10
28
04
04
7C
84
84
84
84
78
ENDCHAR
STARTCHAR $241
ENCODING 241
SWIDTH 600 0
DWIDTH 8 0
BBX 6 11 1 0
BITMAP
34
58
00
00
F8
84
84
84
84
84
84
ENDCHAR
STARTCHAR $242
ENCODING 242
SWIDTH 600 0
DWIDTH 8 0
BBX 6 11 1 0
BITMAP
30
10
08
00
78
84
84
84
84
84
78
ENDCHAR
STARTCHAR $243
ENCODING 243
SWIDTH 600 0
DWIDTH 8 0
BBX 6 11 1 0
BITMAP
18
10
20
00
78
84
84
84
84
84
78
ENDCHAR
STARTCHAR $244
ENCODING 244
SWIDTH 600 0
DWIDTH 8 0
BBX 6 11 1 0
BITMAP
10
28
44
00
78
84
84
84
84
84
78
ENDCHAR
STARTCHAR $245
ENCODING 245
SWIDTH 600 0
DWIDTH 8 0
BBX 6 11 1 0
BITMAP
34
58
00
00
78
84
84
84
84
84
78
ENDCHAR
STARTCHAR $246
ENCODING 246
SWIDTH 600 0
DWIDTH 8 0
BBX 6 11 1 0
BITMAP
48
48
00
00
78
84
84
84
84
84
78
ENDCHAR
STARTCHAR $247
ENCODING 247
SWIDTH 600 0
DWIDTH 8 0
BBX 5 5 1 2
BITMAP
20
00
F8
00
20
ENDCHAR
STARTCHAR $248
ENCODING 248
SWIDTH 600 0
DWIDTH 8 0
BBX 6 9 1 -1
BITMAP
04
78
8C
94
A4
A4
C4
78
80
ENDCHAR
STARTCHAR $249
ENCODING 249
SWIDTH 600 0
DWIDTH 8 0
BBX 6 11 1 0
BITMAP
30
10
08
00
84
84
84
84
84
84
7C
ENDCHAR
STARTCHAR $250
ENCODING 250
SWIDTH 600 0
DWIDTH 8 0
BBX 6 11 1 0
BITMAP
18
10
20
00
84
84
84
84
84
84
7C
ENDCHAR
STARTCHAR $251
ENCODING 251
SWIDTH 600 0
DWIDTH 8 0
BBX 6 11 1 0
BITMAP
10
28
44
00
84
84
84
84
84
84
7C
ENDCHAR
STARTCHAR $252
ENCODING 252
SWIDTH 600 0
DWIDTH 8 0
BBX 6 11 1 0
BITMAP
48
48
00
00
84
84
84
84
84
84
7C
ENDCHAR
STARTCHAR $253
ENCODING 253
SWIDTH 600 0
DWIDTH 8 0
BBX 6 15 1 -4
BITMAP
18
10
20
00
84
84
84
84
84
84
7C
04
04
04
78
ENDCHAR
STARTCHAR $254
ENCODING 254
SWIDTH 600 0
DWIDTH 8 0
BBX 5 13 1 -3
BITMAP
80
80
80
F0
88
88
88
88
88
F0
80
80
80
ENDCHAR
STARTCHAR $255
ENCODING 255
SWIDTH 600 0
DWIDTH 8 0
BBX 6 14 1 -4
BITMAP
48
48
00
84
84
84
84
84
84
7C
04
04
04
78
ENDCHAR
STARTCHAR $104
ENCODING 955
SWIDTH 600 0
DWIDTH 8 0
BBX 7 10 0 0
BITMAP
C0
20
20
10
10
28
44
44
82
82
ENDCHAR
STARTCHAR char960
ENCODING 960
SWIDTH 600 0
DWIDTH 8 0
BBX 7 7 0 0
BITMAP
FE
28
28
48
48
8A
8E
ENDCHAR
STARTCHAR char8629
ENCODING 8629
SWIDTH 600 0
DWIDTH 8 0
BBX 8 7 0 0
BITMAP
03
23
63
FF
FF
60
20
ENDCHAR
STARTCHAR char9642
ENCODING 9642
SWIDTH 600 0
DWIDTH 8 0
BBX 5 5 1 2
BITMAP
F8
F8
F8
F8
F8
ENDCHAR
STARTCHAR char9656
ENCODING 9652
SWIDTH 600 0
DWIDTH 8 0
BBX 7 7 0 0
BITMAP
10
10
38
38
7C
7C
FE
ENDCHAR
STARTCHAR char9656
ENCODING 9656
SWIDTH 600 0
DWIDTH 8 0
BBX 5 9 1 0
BITMAP
80
C0
E0
F0
F8
F0
E0
C0
80
ENDCHAR
STARTCHAR char9656
ENCODING 9662
SWIDTH 600 0
DWIDTH 8 0
BBX 7 7 0 0
BITMAP
FE
7C
7C
38
38
10
10
ENDCHAR
STARTCHAR char9656
ENCODING 9666
SWIDTH 600 0
DWIDTH 8 0
BBX 5 9 1 0
BITMAP
08
18
38
78
F8
78
38
18
08
ENDCHAR
STARTCHAR char9670
ENCODING 9670
SWIDTH 600 0
DWIDTH 8 0
BBX 7 7 0 1
BITMAP
10
38
7C
FE
7C
38
10
ENDCHAR
STARTCHAR char10003
ENCODING 10003
SWIDTH 600 0
DWIDTH 8 0
BBX 8 10 0 0
BITMAP
01
02
02
04
04
08
88
90
50
20
ENDCHAR
STARTCHAR char10007
ENCODING 10007
SWIDTH 600 0
DWIDTH 8 0
BBX 7 11 0 0
BITMAP
02
22
24
18
18
14
22
20
40
80
80
ENDCHAR
STARTCHAR uniE0A0
ENCODING 57504
SWIDTH 600 0
DWIDTH 8 0
BBX 8 16 0 -4
BITMAP
C0
C0
C0
C4
CE
DF
C4
CC
9C
38
70
E0
E0
E0
E0
E0
ENDCHAR
STARTCHAR uniE0A1
ENCODING 57505
SWIDTH 600 0
DWIDTH 8 0
BBX 8 15 0 -3
BITMAP
80
80
80
80
80
80
F8
00
11
19
19
15
17
13
11
ENDCHAR
STARTCHAR uniE0A2
ENCODING 57506
SWIDTH 600 0
DWIDTH 8 0
BBX 8 11 0 -1
BITMAP
3C
66
42
42
7E
E7
C3
E7
FF
7E
3C
ENDCHAR
STARTCHAR uniE0B0
ENCODING 57520
SWIDTH 600 0
DWIDTH 8 0
BBX 8 16 0 -4
BITMAP
80
C0
E0
F0
F8
FC
FE
FF
FF
FE
FC
F8
F0
E0
C0
80
ENDCHAR
STARTCHAR uniE0B1
ENCODING 57521
SWIDTH 600 0
DWIDTH 8 0
BBX 8 16 0 -4
BITMAP
80
40
20
10
08
04
02
01
01
02
04
08
10
20
40
80
ENDCHAR
STARTCHAR uniE0B2
ENCODING 57522
SWIDTH 600 0
DWIDTH 8 0
BBX 8 16 0 -4
BITMAP
01
03
07
0F
1F
3F
7F
FF
FF
7F
3F
1F
0F
07
03
01
ENDCHAR
STARTCHAR uniE0B3
ENCODING 57523
SWIDTH 600 0
DWIDTH 8 0
BBX 8 16 0 -4
BITMAP
01
02
04
08
10
20
40
80
80
40
20
10
08
04
02
01
ENDCHAR
STARTCHAR layout-tall
ENCODING 60928
SWIDTH 600 0
DWIDTH 8 0
BBX 8 9 0 0
BITMAP
EF
EF
E0
EF
0F
EF
E0
EF
EF
ENDCHAR
STARTCHAR layout-mtall
ENCODING 60929
SWIDTH 600 0
DWIDTH 8 0
BBX 8 9 0 0
BITMAP
EF
EF
EF
00
DB
DB
DB
DB
DB
ENDCHAR
STARTCHAR layout-full
ENCODING 60930
SWIDTH 600 0
DWIDTH 8 0
BBX 8 9 0 0
BITMAP
FF
FF
FF
FF
FF
FF
FF
FF
FF
ENDCHAR
STARTCHAR layout-grid
ENCODING 60931
SWIDTH 600 0
DWIDTH 8 0
BBX 8 9 0 0
BITMAP
EF
EF
EF
EF
00
EF
EF
EF
EF
ENDCHAR
STARTCHAR layout-tall-white
ENCODING 60944
SWIDTH 600 0
DWIDTH 8 0
BBX 8 9 0 0
BITMAP
FF
91
91
9F
F1
91
9F
91
FF
ENDCHAR
STARTCHAR layout-mtall-white
ENCODING 60945
SWIDTH 600 0
DWIDTH 8 0
BBX 8 9 0 0
BITMAP
FF
89
89
FF
95
95
95
95
FF
ENDCHAR
STARTCHAR layout-full-white
ENCODING 60946
SWIDTH 600 0
DWIDTH 8 0
BBX 8 9 0 0
BITMAP
FF
81
81
81
81
81
81
81
FF
ENDCHAR
STARTCHAR layout-grid-white
ENCODING 60947
SWIDTH 600 0
DWIDTH 8 0
BBX 8 9 0 0
BITMAP
FF
91
91
91
FF
91
91
91
FF
ENDCHAR
STARTCHAR vol-mute
ENCODING 60960
SWIDTH 600 0
DWIDTH 8 0
BBX 7 9 0 0
BITMAP
08
18
3A
F4
E8
D0
28
58
88
ENDCHAR
STARTCHAR vol-1-3
ENCODING 60961
SWIDTH 600 0
DWIDTH 8 0
BBX 5 9 0 0
BITMAP
08
18
38
F8
F8
F8
38
18
08
ENDCHAR
STARTCHAR vol-2-3
ENCODING 60962
SWIDTH 600 0
DWIDTH 8 0
BBX 7 9 0 0
BITMAP
08
18
38
FA
FA
FA
38
18
08
ENDCHAR
STARTCHAR vol-3-3
ENCODING 60963
SWIDTH 600 0
DWIDTH 8 0
BBX 8 9 0 0
BITMAP
10
32
71
F5
F5
F5
71
32
10
ENDCHAR
STARTCHAR music-stopped
ENCODING 60976
SWIDTH 600 0
DWIDTH 8 0
BBX 5 5 1 2
BITMAP
F8
F8
F8
F8
F8
ENDCHAR
STARTCHAR music-play
ENCODING 60977
SWIDTH 600 0
DWIDTH 8 0
BBX 4 7 1 1
BITMAP
80
C0
E0
F0
E0
C0
80
ENDCHAR
STARTCHAR music-paused
ENCODING 60978
SWIDTH 600 0
DWIDTH 8 0
BBX 5 5 1 2
BITMAP
D8
D8
D8
D8
D8
ENDCHAR
STARTCHAR music-next
ENCODING 60979
SWIDTH 600 0
DWIDTH 8 0
BBX 5 7 1 1
BITMAP
88
C8
E8
F8
E8
C8
88
ENDCHAR
STARTCHAR music-forward
ENCODING 60980
SWIDTH 600 0
DWIDTH 8 0
BBX 7 7 0 1
BITMAP
90
D8
FC
FE
FC
D8
90
ENDCHAR
STARTCHAR music-prev
ENCODING 60981
SWIDTH 600 0
DWIDTH 8 0
BBX 5 7 1 1
BITMAP
88
98
B8
F8
B8
98
88
ENDCHAR
STARTCHAR music-backward
ENCODING 60982
SWIDTH 600 0
DWIDTH 8 0
BBX 7 7 0 1
BITMAP
12
36
7E
FE
7E
36
12
ENDCHAR
STARTCHAR music-record
ENCODING 60983
SWIDTH 600 0
DWIDTH 8 0
BBX 6 7 1 1
BITMAP
30
78
FC
FC
FC
78
30
ENDCHAR
STARTCHAR bat-0-3
ENCODING 60992
SWIDTH 600 0
DWIDTH 8 0
BBX 7 12 0 -2
BITMAP
38
FE
92
BA
92
82
82
82
82
BA
82
FE
ENDCHAR
STARTCHAR bat-1-3
ENCODING 60993
SWIDTH 600 0
DWIDTH 8 0
BBX 7 12 0 -2
BITMAP
38
FE
92
BA
92
82
82
82
FE
C6
FE
FE
ENDCHAR
STARTCHAR bat-2-3
ENCODING 60994
SWIDTH 600 0
DWIDTH 8 0
BBX 7 12 0 -2
BITMAP
38
FE
92
BA
92
FE
FE
FE
FE
C6
FE
FE
ENDCHAR
STARTCHAR bat-full
ENCODING 60995
SWIDTH 600 0
DWIDTH 8 0
BBX 7 12 0 -2
BITMAP
38
FE
EE
C6
EE
FE
FE
FE
FE
C6
FE
FE
ENDCHAR
STARTCHAR load
ENCODING 61168
SWIDTH 600 0
DWIDTH 8 0
BBX 8 9 0 0
BITMAP
FF
81
81
85
8B
D1
A1
81
FF
ENDCHAR
STARTCHAR cpu
ENCODING 61169
SWIDTH 600 0
DWIDTH 8 0
BBX 8 8 0 0
BITMAP
DB
81
3C
BD
BD
3C
81
DB
ENDCHAR
STARTCHAR mem
ENCODING 61170
SWIDTH 600 0
DWIDTH 8 0
BBX 7 8 0 0
BITMAP
AA
00
FE
FE
FE
FE
00
AA
ENDCHAR
STARTCHAR mpd
ENCODING 61171
SWIDTH 600 0
DWIDTH 8 0
BBX 8 8 0 0
BITMAP
3F
3F
21
21
21
21
E7
E7
ENDCHAR
STARTCHAR uptime
ENCODING 61172
SWIDTH 600 0
DWIDTH 8 0
BBX 8 8 0 0
BITMAP
0C
14
27
E4
E4
27
14
0C
ENDCHAR
STARTCHAR temperature
ENCODING 61173
SWIDTH 600 0
DWIDTH 8 0
BBX 7 13 0 -2
BITMAP
30
7A
78
7A
78
4A
48
4A
84
84
84
48
30
ENDCHAR
STARTCHAR mail
ENCODING 61174
SWIDTH 600 0
DWIDTH 8 0
BBX 8 7 0 0
BITMAP
FF
7E
BD
DB
E7
BD
7E
ENDCHAR
STARTCHAR headphone
ENCODING 61175
SWIDTH 600 0
DWIDTH 8 0
BBX 8 9 0 0
BITMAP
3C
42
42
81
81
A5
E7
66
24
ENDCHAR
STARTCHAR download
ENCODING 61176
SWIDTH 600 0
DWIDTH 8 0
BBX 7 9 0 0
BITMAP
70
38
38
38
38
FE
7C
38
10
ENDCHAR
STARTCHAR upload
ENCODING 61177
SWIDTH 600 0
DWIDTH 8 0
BBX 7 9 0 0
BITMAP
10
38
7C
FE
38
38
38
38
70
ENDCHAR
ENDFONT
